<svg width="40" height="39" viewBox="0 0 40 39" fill="none" xmlns="http://www.w3.org/2000/svg">
<g clip-path="url(#clip0)">
<path d="M27.1956 0.000488281H12.8199C6.20463 0.000488281 0.840088 5.36503 0.840088 11.9803V26.356C0.840088 32.9712 6.20463 38.3357 12.8199 38.3357H27.1956C33.8108 38.3357 39.1753 32.9712 39.1753 26.356V11.9803C39.1753 5.36503 33.8108 0.000488281 27.1956 0.000488281ZM35.5814 26.356C35.5814 30.9802 31.8198 34.7418 27.1956 34.7418H12.8199C8.19566 34.7418 4.43402 30.9802 4.43402 26.356V11.9803C4.43402 7.35606 8.19566 3.59442 12.8199 3.59442H27.1956C31.8198 3.59442 35.5814 7.35606 35.5814 11.9803V26.356Z" fill="black"/>
<path d="M20.0076 9.5843C14.715 9.5843 10.4238 13.8755 10.4238 19.1681C10.4238 24.4608 14.715 28.7519 20.0076 28.7519C25.3003 28.7519 29.5915 24.4608 29.5915 19.1681C29.5915 13.8755 25.3003 9.5843 20.0076 9.5843ZM20.0076 25.158C16.706 25.158 14.0178 22.4697 14.0178 19.1681C14.0178 15.8641 16.706 13.1782 20.0076 13.1782C23.3093 13.1782 25.9975 15.8641 25.9975 19.1681C25.9975 22.4697 23.3093 25.158 20.0076 25.158Z" fill="black"/>
<path d="M30.3102 10.1426C31.0155 10.1426 31.5873 9.57081 31.5873 8.86552C31.5873 8.16023 31.0155 7.58848 30.3102 7.58848C29.605 7.58848 29.0332 8.16023 29.0332 8.86552C29.0332 9.57081 29.605 10.1426 30.3102 10.1426Z" fill="black"/>
</g>
<defs>
<clipPath id="clip0">
<rect width="38.3353" height="38.3353" fill="white" transform="translate(0.840088 0.000488281)"/>
</clipPath>
</defs>
</svg>
