<svg width="47" height="48" viewBox="0 0 47 48" fill="none" xmlns="http://www.w3.org/2000/svg">
<g clip-path="url(#clip0)">
<path d="M45.0259 27.5157C46.4182 15.796 44.357 8.397 40.639 5.05044L40.6409 5.0485C34.6401 -0.666508 14.3741 -1.51238 7.19482 5.30518C3.97077 8.64007 2.83516 13.5345 2.71071 19.5937C2.58626 25.6548 2.43848 37.009 13.0187 40.0891H13.0284L13.0187 44.793C13.0187 44.793 12.9468 46.6986 14.1641 47.0817C15.5564 47.5328 16.1864 46.6481 20.5169 41.4756C27.7584 42.1037 33.3197 40.6647 33.9517 40.4547C35.414 39.9647 43.688 38.8699 45.0259 27.5157ZM21.2305 38.166C21.2305 38.166 16.6472 43.881 15.2219 45.3647C14.7552 45.8469 14.2438 45.8022 14.2516 44.8455C14.2516 44.2174 14.2866 37.0362 14.2866 37.0362C5.3164 34.4655 5.84531 24.7973 5.94254 19.7395C6.03977 14.6798 6.96537 10.536 9.69551 7.74558C15.9939 1.84001 33.7612 3.16035 38.288 7.41501C43.8222 12.3211 41.8524 26.1818 41.8641 26.6543C40.7265 36.132 34.0217 36.7329 32.7889 37.1432C32.2619 37.3182 27.3714 38.5763 21.2305 38.166Z" fill="black"/>
<path d="M23.7663 8.85593C23.0177 8.85593 23.0177 10.0227 23.7663 10.0324C29.5747 10.0771 34.3582 14.1256 34.4107 21.5518C34.4107 22.3355 35.558 22.3258 35.5483 21.5421H35.5464C35.4841 13.5403 30.2611 8.90065 23.7663 8.85593Z" fill="black"/>
<path d="M31.4063 20.3209C31.3888 21.0948 32.5341 21.1318 32.5439 20.3481C32.6391 15.936 29.9187 12.3016 24.8065 11.9186C24.0579 11.8641 23.9801 13.0406 24.7268 13.095C29.1604 13.4314 31.4958 16.4571 31.4063 20.3209Z" fill="black"/>
<path d="M30.1812 25.3398C29.2206 24.7837 28.2425 25.1298 27.838 25.6762L26.9921 26.771C26.5624 27.3272 25.7593 27.2533 25.7593 27.2533C19.8984 25.7035 18.3311 19.5704 18.3311 19.5704C18.3311 19.5704 18.2592 18.7401 18.7959 18.2948L19.8537 17.4197C20.3826 16.9997 20.7171 15.9885 20.1785 14.9949C18.7395 12.395 17.7731 11.4986 17.2811 10.8102C16.7638 10.1627 15.986 10.0169 15.1771 10.4544H15.1596C13.4776 11.4383 11.6361 13.2798 12.2253 15.1757C13.2306 17.1747 15.0779 23.547 20.966 28.3617C23.7331 30.6387 28.1122 32.9722 29.9712 33.5108L29.9887 33.538C31.8204 34.1486 33.6016 32.2352 34.5525 30.5026V30.489C34.9745 29.6509 34.8345 28.8575 34.218 28.3383C33.1252 27.2727 31.4762 26.0963 30.1812 25.3398Z" fill="black"/>
<path d="M25.6076 16.2588C27.4763 16.3677 28.3825 17.3438 28.4797 19.3486C28.5147 20.1323 29.6523 20.0779 29.6173 19.2942C29.4928 16.6768 28.1278 15.2184 25.6698 15.0823C24.9212 15.0376 24.8512 16.214 25.6076 16.2588Z" fill="black"/>
</g>
<defs>
<clipPath id="clip0">
<rect width="46.669" height="46.669" fill="white" transform="translate(0 0.500244)"/>
</clipPath>
</defs>
</svg>
