<svg width="47" height="47" viewBox="0 0 47 47" fill="none" xmlns="http://www.w3.org/2000/svg">
<g clip-path="url(#clip0)">
<path d="M23.9334 37.5803C30.5772 37.5129 28.1656 33.331 28.6661 32.1164C28.6493 31.2133 28.6329 30.3447 28.6581 29.8162C29.0803 29.9306 30.0785 30.4238 32.1501 32.3969C35.3493 35.5604 36.1781 37.4562 38.7365 37.4302L43.4457 37.3825C44.9382 37.3674 45.7089 36.7414 46.092 36.2189C46.462 35.7138 46.8205 34.8298 46.4048 33.4638C45.3208 30.1755 39.1359 24.541 38.749 23.944C38.8053 23.8325 38.8957 23.6842 38.9427 23.6072L38.9389 23.6072C40.1321 21.9972 44.6774 15.0349 45.3287 12.261C45.3305 12.2572 45.3324 12.2514 45.3323 12.2457C45.6869 10.979 45.3419 10.1634 44.9889 9.7039C44.4576 9.01651 43.6197 8.67479 42.4926 8.68622L37.7834 8.73395C36.2067 8.74993 35.0188 9.55617 34.4288 11.0108C33.4426 13.5948 30.6528 18.9165 28.5401 20.8114C28.4481 18.158 28.4716 16.1311 28.4908 14.6248C28.5299 11.6869 28.7229 8.82579 25.6746 8.85669L18.2731 8.93171C16.3634 8.95107 14.5571 11.0553 16.5608 13.5114C18.3126 15.6638 17.2169 16.8844 17.6511 22.9006C16.181 21.3558 13.5512 17.1703 11.6673 11.8061C11.1397 10.3551 10.3491 9.01395 8.16198 9.03612L3.45278 9.08385C1.54307 9.10321 0.413159 10.1557 0.430829 11.899C0.470513 15.814 9.35992 37.728 23.9334 37.5803ZM8.19107 11.9064C8.60631 11.9022 8.64841 11.9018 8.96535 12.7731C10.8946 18.2709 15.1795 26.3914 18.2488 26.3603C20.5546 26.3369 20.5306 23.9737 20.5216 23.0839L20.4479 16C20.2978 13.6572 19.4326 12.4986 18.8647 11.7963L25.5775 11.7359C25.5816 11.7684 25.6186 19.5722 25.6952 21.4622C25.7224 24.1469 27.8697 25.6638 31.1632 22.2622C34.6344 18.2637 37.0026 12.3148 37.0977 12.0727C37.2377 11.7268 37.3609 11.6088 37.8125 11.6042L42.5217 11.5565L42.5409 11.5563C42.539 11.5621 42.5391 11.5678 42.5372 11.5736C42.127 13.5872 37.942 20.0329 36.5404 22.0355C36.5177 22.0663 36.497 22.0991 36.4763 22.1318C35.8609 23.16 35.3634 24.2941 36.6003 25.87L36.6022 25.87C36.7146 26.0028 37.0067 26.3137 37.4321 26.7457C38.7546 28.0834 43.2906 32.6571 43.7072 34.4901C43.4436 34.5349 43.1563 34.5072 38.7074 34.5618C37.7602 34.5714 37.0053 33.1629 34.1501 30.3404C31.5839 27.8939 29.9242 26.9003 28.4221 26.9155C25.5058 26.945 25.7422 29.3099 25.798 32.1723C25.8391 35.276 25.81 34.2945 25.833 34.4895C25.6634 34.5582 25.1768 34.6971 23.9043 34.71C11.7629 34.833 3.66087 15.642 3.31928 11.9615C3.42443 11.9509 4.87303 11.942 8.19107 11.9064Z" fill="black"/>
</g>
<defs>
<clipPath id="clip0">
<rect width="45.9271" height="45.9271" fill="white" transform="translate(0.31543 0.501953) rotate(-0.580746)"/>
</clipPath>
</defs>
</svg>
