<svg width="44" height="44" viewBox="0 0 44 44" fill="none" xmlns="http://www.w3.org/2000/svg">
<path fill-rule="evenodd" clip-rule="evenodd" d="M36.0485 7.2372C32.2477 3.43188 27.1928 1.33532 21.8077 1.33308C10.7112 1.33308 1.68017 10.3638 1.6757 21.4634C1.67421 25.0115 2.60112 28.4751 4.36293 31.5281L1.50684 41.9601L12.1791 39.1606C15.1198 40.7647 18.4304 41.61 21.7995 41.611H21.808C32.9033 41.611 41.9353 32.5795 41.9395 21.4795C41.9417 16.1001 39.8496 11.0423 36.0485 7.2372ZM21.8077 38.2111H21.8008C18.7984 38.2099 15.8538 37.403 13.2843 35.8787L12.6736 35.5159L6.34047 37.1773L8.03087 31.0027L7.63288 30.3696C5.95786 27.7054 5.07336 24.6262 5.07484 21.4646C5.07832 12.239 12.5848 4.73322 21.8144 4.73322C26.2838 4.73471 30.4851 6.47742 33.6442 9.64025C36.8033 12.8031 38.5421 17.0071 38.5406 21.4782C38.5366 30.7046 31.0306 38.2111 21.8077 38.2111ZM30.986 25.6791C30.4831 25.4271 28.0099 24.2106 27.5487 24.0425C27.0879 23.8746 26.7522 23.791 26.4172 24.2944C26.0817 24.7978 25.1178 25.931 24.8242 26.2665C24.5306 26.6022 24.2375 26.6444 23.7344 26.3925C23.2313 26.1408 21.6106 25.6094 19.6891 23.8957C18.1938 22.5618 17.1844 20.9146 16.8908 20.4112C16.5977 19.9074 16.8883 19.6614 17.1114 19.3846C17.656 18.7084 18.2013 17.9995 18.3689 17.664C18.5368 17.3282 18.4527 17.0344 18.3267 16.7827C18.2013 16.531 17.1953 14.0551 16.7762 13.0476C16.3675 12.0671 15.9532 12.1995 15.6442 12.1842C15.3511 12.1695 15.0156 12.1665 14.6801 12.1665C14.3449 12.1665 13.7998 12.2923 13.3386 12.7961C12.8776 13.2998 11.5783 14.5165 11.5783 16.9925C11.5783 19.4685 13.3808 21.8603 13.6322 22.1961C13.8837 22.5318 17.1794 27.6127 22.2253 29.7913C23.4255 30.3101 24.3623 30.6193 25.093 30.8512C26.2982 31.234 27.3944 31.18 28.2613 31.0505C29.2279 30.906 31.2372 29.8335 31.6567 28.6586C32.0758 27.4835 32.0758 26.4765 31.9498 26.2665C31.8244 26.0567 31.4889 25.931 30.986 25.6791Z" fill="black"/>
</svg>
